<?xml version="1.0" encoding="UTF-8"?>
<svg version="1.1" xmlns="http://www.w3.org/2000/svg" width="918" height="748">
<path d="M0 0 C302.94 0 605.88 0 918 0 C918 246.84 918 493.68 918 748 C615.06 748 312.12 748 0 748 C0 501.16 0 254.32 0 0 Z " fill="#000000" transform="translate(0,0)"/>
<path d="M0 0 C8.71587894 4.35793947 12.37729369 12.6013625 15.625 21.3125 C18.01897448 27.48895415 21.24192054 33.21986499 24.36572266 39.0480957 C26.84002664 43.6964418 29.00086099 48.27158193 30.8125 53.21875 C32.96831112 58.26788656 35.66720295 63.05921504 38.296875 67.875 C40.4319923 71.82892093 42.34936573 75.74162441 43.96484375 79.9375 C46.42688273 86.30343505 49.7295057 92.17754447 53.02148438 98.14453125 C56.14936894 103.95284508 58.36476939 109.60672044 60 116 C63.14616546 115.37666455 66.29186743 114.75101862 69.4375 114.125 C70.31599609 113.95097656 71.19449219 113.77695313 72.09960938 113.59765625 C74.73465915 113.07259098 77.3678077 112.5392012 80 112 C80.82258301 111.83209961 81.64516602 111.66419922 82.49267578 111.49121094 C83.26981934 111.3265332 84.04696289 111.16185547 84.84765625 110.9921875 C85.52965088 110.84894043 86.21164551 110.70569336 86.91430664 110.55810547 C89.07807796 110.02969101 89.07807796 110.02969101 91.34692383 109.01416016 C94.42518995 107.83746765 97.34828212 107.3074557 100.6015625 106.78125 C101.88667725 106.57209961 103.17179199 106.36294922 104.49584961 106.14746094 C105.87211428 105.93088438 107.24850064 105.71507991 108.625 105.5 C109.32384308 105.38950317 110.02268616 105.27900635 110.7427063 105.16516113 C138.15901855 100.84075477 165.32002752 99.81285179 193.06494141 99.81469727 C196.76085658 99.81249353 200.4564802 99.79418977 204.15234375 99.77539062 C223.76049611 99.72911837 242.78069546 101.02438459 262 105 C262.92458008 105.19045898 263.84916016 105.38091797 264.80175781 105.57714844 C285.24299707 109.86908123 305.49657278 115.47595057 325 123 C325.99 123.33 326.98 123.66 328 124 C328 124.66 328 125.32 328 126 C328.763125 126.2475 329.52625 126.495 330.3125 126.75 C333.29822715 128.1387103 334.40640253 129.14829927 336 132 C336 133.32 336 134.64 336 136 C336.66 136 337.32 136 338 136 C338.42152344 137.09054688 338.42152344 137.09054688 338.8515625 138.203125 C339.916433 140.7964831 341.09587083 143.25692021 342.375 145.75 C344.43125196 149.80791316 346.32101661 153.90587299 348.10546875 158.08984375 C349.05985433 160.251708 349.05985433 160.251708 351 163 C351.59148436 164.64964445 352.12969707 166.31897187 352.625 168 C353.01558594 169.299375 353.01558594 169.299375 353.4140625 170.625 C354 173 354 173 354 176 C354.66 176 355.32 176 356 176 C356.1858667 176.57854736 356.3717334 177.15709473 356.56323242 177.75317383 C360.55787988 190.62252767 360.55787988 190.62252767 365.8125 203 C368.25849337 207.97991462 368.94932782 212.86137031 369.54296875 218.34765625 C369.76286079 221.14736998 369.76286079 221.14736998 372 223 C372.64324219 222.17757812 373.28648437 221.35515625 373.94921875 220.5078125 C384.69613054 207.10089383 397.54271381 195.8927228 415 193 C429.51860589 191.56493585 441.67745047 193.07469258 453.27734375 202.5546875 C453.84582031 203.03164063 454.41429687 203.50859375 455 204 C455.969375 204.70125 456.93875 205.4025 457.9375 206.125 C469.82599551 216.26423459 476.02235638 231.32572017 480 246 C480.26554688 246.94230469 480.53109375 247.88460937 480.8046875 248.85546875 C481.616755 251.89025709 482.32540138 254.93166436 483 258 C483.28101563 259.25554687 483.56203125 260.51109375 483.8515625 261.8046875 C487.42010529 279.28418574 488.91158169 300.96073513 483 318 C482.68989498 319.5161269 482.3989321 321.03622331 482.12109375 322.55859375 C477.64356611 345.32606834 466.78420739 368.06817094 447.23046875 381.6953125 C437.16996847 387.5800885 427.37240898 391.39288472 415.6875 391.3125 C414.84590332 391.30758545 414.00430664 391.3026709 413.13720703 391.29760742 C401.74848006 391.08278814 393.38373095 387.25582064 384 381 C384.01933594 381.94875 384.03867187 382.8975 384.05859375 383.875 C384.01231464 404.48463164 378.28561414 424.7853928 373.49528503 444.67478943 C372.33857729 449.49941475 371.26778815 454.32957665 370.3425293 459.20483398 C369.04998172 465.97896253 365.43002553 469.03953483 360 473 C343.95487817 483.58878973 343.95487817 483.58878973 337 486 C337 486.66 337 487.32 337 488 C332.57221156 490.74522883 329.28137429 492.48474397 324 493 C324 493.66 324 494.32 324 495 C304.6 505 304.6 505 299 505 C299 505.66 299 506.32 299 507 C297.68 507 296.36 507 295 507 C294.67 507.99 294.34 508.98 294 510 C288.75789181 512.83947527 283.90528268 513.61167075 278 514 C277.67 514.99 277.34 515.98 277 517 C274.41796875 517.9140625 274.41796875 517.9140625 271.1875 518.625 C270.12917969 518.86476563 269.07085938 519.10453125 267.98046875 519.3515625 C266.50513672 519.67253906 266.50513672 519.67253906 265 520 C263.66526515 520.32767631 262.33122157 520.65833054 261 521 C260.88374268 521.85053955 260.76748535 522.7010791 260.64770508 523.57739258 C259.96827902 527.16762024 258.91107347 530.33869553 257.63671875 533.76171875 C257.4034639 534.393022 257.17020905 535.02432526 256.92988586 535.67475891 C256.18741923 537.6809018 255.43766925 539.68422637 254.6875 541.6875 C254.19546498 543.01218472 253.7039245 544.33705323 253.21289062 545.66210938 C252.25615743 548.24242017 251.2973405 550.82194067 250.33691406 553.40087891 C246.21930545 564.48593846 242.11368482 575.58315564 239 587 C240.16402344 586.43732422 240.16402344 586.43732422 241.3515625 585.86328125 C253.2916465 580.20670207 264.59028833 575.27015903 278 575 C278 574.34 278 573.68 278 573 C304.52366138 568.29608717 304.52366138 568.29608717 316 568 C316.84965332 567.96890137 317.69930664 567.93780273 318.57470703 567.90576172 C340.30217155 567.16930022 361.38622036 568.03697941 378.28515625 583.03515625 C381.66460614 586.9072822 381.32924209 591.5947274 381.29296875 596.53515625 C380.86852121 600.10617488 379.19785836 602.22035561 377 605 C376.67 605.845625 376.34 606.69125 376 607.5625 C373.80189474 612.92038157 369.95690719 615.98011686 365.390625 619.26953125 C363.65028209 620.52928927 361.93450699 621.8231987 360.234375 623.13671875 C342.25212224 637 342.25212224 637 337 637 C337 637.66 337 638.32 337 639 C335.25203125 639.63808594 335.25203125 639.63808594 333.46875 640.2890625 C330.05535817 641.56833457 326.73810373 642.98151117 323.42480469 644.49829102 C314.82327389 648.41611155 306.13593235 651.57424628 297 654 C295.56261475 654.39348633 295.56261475 654.39348633 294.09619141 654.79492188 C270.00367791 661.22157109 243.07582855 664.05314172 219 656 C217.9275 655.69964844 216.855 655.39929688 215.75 655.08984375 C208.11395388 652.8399373 201.68982164 649.2554953 195 645 C193.60201172 644.30197266 193.60201172 644.30197266 192.17578125 643.58984375 C189.30620938 641.94192729 187.73852172 640.83090837 186 638 C185.71487128 633.05248861 186.42804493 628.5538914 187.43505859 623.72338867 C188.12779597 620.38393949 188.74597531 617.03318045 189.3671875 613.6796875 C191.15036358 604.13036434 193.0113831 594.5963915 194.875 585.0625 C195.0488623 584.17200958 195.22272461 583.28151917 195.40185547 582.36404419 C198.22598551 567.9009131 201.08316655 553.44475976 204 539 C203.2972998 539.10546143 202.59459961 539.21092285 201.87060547 539.31958008 C189.58771995 541.15971648 177.30359395 542.99041517 165 544.6875 C164.14905762 544.80649658 163.29811523 544.92549316 162.42138672 545.0480957 C159.94963849 545.38506393 157.47627891 545.69823124 155 546 C153.85192871 546.14791992 153.85192871 546.14791992 152.68066406 546.29882812 C143.69085253 547.29808979 134.65506233 547.15043304 125.62255859 547.13037109 C122.77045307 547.12503824 119.91850682 547.13032721 117.06640625 547.13671875 C106.6661974 547.14010821 96.36560249 546.88290638 86 546 C86.18062988 546.73710205 86.36125977 547.4742041 86.54736328 548.23364258 C90.17052801 563.05016617 93.67511547 577.87626304 96.93115234 592.77856445 C98.4958226 599.88632012 100.25365588 606.9016332 102.1953125 613.9140625 C103.19511734 617.74826552 103.91315354 621.5924701 104.55859375 625.5 C104.99869733 627.99262202 105.5775692 630.41911968 106.1875 632.875 C106.93357137 636.256388 107.37201143 638.70717256 106 642 C95.87743659 654.26977383 79.82147747 657.40177898 64.89453125 659.421875 C61.21828576 659.76126055 61.21828576 659.76126055 59 661 C56.52978983 661.14853601 54.08970184 661.23652087 51.6171875 661.2734375 C50.86274857 661.28582962 50.10830963 661.29822174 49.33100891 661.31098938 C46.84562798 661.34369655 44.36056182 661.36228332 41.875 661.375 C41.02886139 661.37956207 40.18272278 661.38412415 39.3109436 661.38882446 C27.09916129 661.41230506 15.24073528 660.66284435 3.1875 658.6875 C1.88603027 658.47464355 0.58456055 658.26178711 -0.75634766 658.04248047 C-6.73264554 656.98347954 -12.45124147 655.71530941 -18.16430664 653.65844727 C-20.51048608 652.81689307 -22.8932416 652.21920382 -25.3125 651.625 C-43.79226263 646.63880536 -61.79962269 637.60597139 -72 621 C-74.51956806 615.96086388 -73.21160347 608.61347647 -72.5 603.1875 C-68.22813384 594.10978441 -58.41543269 590.03533041 -49.5078125 586.6875 C-20.6034331 576.62264857 12.49715857 577.75521297 42.06640625 584.4140625 C45.15516437 585.13057668 45.15516437 585.13057668 49 585 C43.25770842 575.53878337 37.47254337 566.10756867 31.5625 556.75 C31.06717773 555.96520264 30.57185547 555.18040527 30.06152344 554.37182617 C27.98674471 551.09524566 25.90021674 547.83434683 23.72265625 544.625 C22.08603123 542.13109521 21.07578677 539.76630883 20 537 C17.58448035 534.58448035 15.96367102 534.25158404 12.6875 533.3125 C6.47981482 531.46959346 0.33003727 529.48716827 -5.8125 527.4375 C-6.69526611 527.14464111 -7.57803223 526.85178223 -8.48754883 526.55004883 C-13.70306201 524.80827257 -18.86350003 522.96148662 -24 521 C-25.04542969 520.61199219 -26.09085938 520.22398437 -27.16796875 519.82421875 C-37.25077644 516.02849167 -47.39828116 512.11788669 -56.31640625 505.98046875 C-58.18398272 504.89285461 -59.89097755 504.42918838 -62 504 C-62 503.34 -62 502.68 -62 502 C-62.60328125 501.82984375 -63.2065625 501.6596875 -63.828125 501.484375 C-70.43529925 499.48090926 -73.67661229 497.33476774 -77.25 491.375 C-79 488 -79 488 -79 486 C-79.66 486 -80.32 486 -81 486 C-82.12981038 483.31443469 -83.25393752 480.62671534 -84.375 477.9375 C-84.69210937 477.18533203 -85.00921875 476.43316406 -85.3359375 475.65820312 C-87.20724035 471.15538065 -88.75976534 466.71664998 -90 462 C-90.66 462 -91.32 462 -92 462 C-93.65 457.05 -95.3 452.1 -97 447 C-101.38190734 449.19095367 -105.33275259 451.83710403 -109.33984375 454.63476562 C-118.048434 460.43727421 -126.77469542 461.48906688 -137.0625 461.3125 C-138.15941162 461.29977051 -139.25632324 461.28704102 -140.38647461 461.27392578 C-166.87159453 460.80433834 -188.80901558 453.98646238 -208 435 C-209.04220703 434.03126953 -209.04220703 434.03126953 -210.10546875 433.04296875 C-215.4705886 427.94766151 -220.04010141 422.25579725 -224 416 C-224 415.34 -224 414.68 -224 414 C-224.99 413.67 -225.98 413.34 -227 413 C-228.02734375 410.92578125 -228.02734375 410.92578125 -228.9375 408.3125 C-230.01656072 405.23414063 -231.0551661 402.92263559 -232.9609375 400.25 C-235.50766888 396.19084194 -236.55197394 392.30627965 -237.6875 387.6875 C-237.89955078 386.88376953 -238.11160156 386.08003906 -238.33007812 385.25195312 C-241.23407531 373.86498623 -241.22715524 362.67310698 -241 351 C-240.98324219 349.88625 -240.96648437 348.7725 -240.94921875 347.625 C-240.29554358 333.58032199 -233.88331311 321.32236185 -223.75 311.75 C-210.47973554 300.63167032 -195.33969464 296.68753387 -178.33398438 297.77685547 C-171.99277171 298.38311785 -166.02672281 299.98820396 -160 302 C-159.29020996 302.23605957 -158.58041992 302.47211914 -157.84912109 302.71533203 C-145.82166173 306.8324341 -134.93961841 312.57329746 -124 319 C-124.0721875 318.319375 -124.144375 317.63875 -124.21875 316.9375 C-125.04863794 308.26978147 -125.09931313 299.69541586 -125 291 C-125.76699219 290.79890625 -126.53398437 290.5978125 -127.32421875 290.390625 C-132.5121102 288.42793706 -137.06168843 285.59196909 -141.8125 282.75 C-150.35619085 277.69800447 -158.94757617 272.75610386 -167.625 267.9375 C-175.88681751 263.32720344 -184.13017324 258.68771583 -192.3125 253.9375 C-193.2317627 253.41341553 -194.15102539 252.88933105 -195.09814453 252.34936523 C-199.60931857 249.70752122 -203.07310233 247.46182601 -206 243 C-206.66 242.01 -207.32 241.02 -208 240 C-208.3359375 237.984375 -208.3359375 237.984375 -208.375 235.75 C-208.41753906 234.65945313 -208.41753906 234.65945313 -208.4609375 233.546875 C-207.4596469 228.01432017 -204.70939562 224.23245206 -200.24414062 221.01098633 C-198.7246009 219.9990281 -197.19456934 219.00270673 -195.65625 218.01953125 C-193.93851746 216.88405676 -192.2210819 215.7481329 -190.50390625 214.61181641 C-189.60365723 214.02321838 -188.7034082 213.43462036 -187.77587891 212.82818604 C-184.04061779 210.36815358 -180.35157965 207.84317323 -176.66162109 205.31588745 C-172.90217529 202.74209861 -169.13096723 200.1858145 -165.35986328 197.62915039 C-163.42286205 196.31405983 -161.48769237 194.99626823 -159.55419922 193.67602539 C-156.71760286 191.7397072 -153.87514161 189.81230068 -151.03125 187.88671875 C-150.16576538 187.29316086 -149.30028076 186.69960297 -148.40856934 186.08805847 C-147.60922974 185.54941666 -146.80989014 185.01077484 -145.98632812 184.45581055 C-145.28640747 183.97983932 -144.58648682 183.5038681 -143.86535645 183.01347351 C-142 182 -142 182 -139 182 C-143.52121979 167.10929828 -148.5043606 152.36925343 -153.43969727 137.61224365 C-154.58460192 134.18782853 -155.72777646 130.76283598 -156.87109375 127.33789062 C-158.91132113 121.22681008 -160.95289844 115.11618225 -162.99621582 109.00613403 C-163.89351823 106.31889173 -164.78623567 103.63017168 -165.67822266 100.94116211 C-166.62145797 98.10969028 -167.59869138 95.29698827 -168.640625 92.5 C-169.17708333 91 -169.71354167 89.5 -170.25 88 C-170.53101563 87.2575 -170.81203125 86.515 -171.1015625 85.75 C-173.47173504 78.99148821 -173.16947052 73.44344099 -170.875 66.6875 C-168.0162656 62.58998069 -164.77702894 60.57033032 -159.96484375 59.58203125 C-155.54828258 59.28545636 -152.16389712 60.20313173 -148.15625 62.00390625 C-139.19647647 65.84595892 -130.00810088 69.06536388 -120.83813477 72.36572266 C-117.70391652 73.4940898 -114.57157375 74.62754381 -111.43945312 75.76171875 C-101.68767371 79.28511 -91.93254143 82.76215312 -82.06494141 85.94873047 C-78.87360325 87.04335386 -75.7886427 88.29785429 -72.6875 89.625 C-66.28375119 92.36452547 -60.02678044 95 -53 95 C-52.63648438 94.030625 -52.27296875 93.06125 -51.8984375 92.0625 C-45.765625 75.70833333 -39.6328125 59.35416667 -33.5 43 C-33.25241943 42.3395166 -33.00483887 41.6790332 -32.74975586 40.99853516 C-32.25128351 39.66981661 -31.75210109 38.34136423 -31.25219727 37.01318359 C-29.97276931 33.61111578 -28.70729695 30.20482272 -27.46484375 26.7890625 C-19.47659056 4.92004166 -19.47659056 4.92004166 -13 1 C-8.64950335 -0.45016555 -4.54665815 -0.51070107 0 0 Z " fill="#8B2B6B" transform="translate(346,72)"/>
<path d="M0 0 C1.37565682 -0.00135085 2.75131318 -0.00329486 4.12696838 -0.00579834 C6.99720852 -0.00873088 9.86732337 -0.00451337 12.73754883 0.00488281 C16.38975496 0.01626547 20.04166664 0.00971358 23.69386196 -0.00226212 C26.53113462 -0.00954084 29.36833921 -0.00716525 32.20561409 -0.00200653 C34.19839294 -0.00005065 36.19117459 -0.00605358 38.1839447 -0.01226807 C45.30422075 0.02418212 51.76639808 0.67237614 58.69140625 2.265625 C60.72084865 2.54807317 62.75470569 2.80220231 64.79296875 3.01171875 C66.38093262 3.18151245 66.38093262 3.18151245 68.00097656 3.35473633 C69.09506836 3.46970459 70.18916016 3.58467285 71.31640625 3.703125 C85.29051102 5.26352105 98.67091194 7.62181581 112.25390625 11.265625 C113.64754395 11.63941284 113.64754395 11.63941284 115.06933594 12.02075195 C120.14427886 13.42682268 124.8919018 15.06653934 129.69140625 17.265625 C130.43245605 17.50901611 131.17350586 17.75240723 131.93701172 18.00317383 C136.61792175 19.67272093 139.12790121 21.23346679 141.546875 25.65234375 C142.35655887 27.40468694 143.13266761 29.1728378 143.87890625 30.953125 C144.29760986 31.88995117 144.71631348 32.82677734 145.14770508 33.79199219 C148.21819775 40.78684882 150.84395138 47.90513914 153.2578125 55.1484375 C154.72556479 59.49265283 156.51092719 63.67815878 158.31640625 67.890625 C161.13505002 74.51589076 163.17944411 81.09839731 164.8671875 88.09375 C165.59639758 91.18127937 165.59639758 91.18127937 166.671875 93.69140625 C168.02651687 97.11174722 168.84265112 100.63238566 169.69140625 104.203125 C170.02238475 105.58780457 170.35568533 106.97193134 170.69140625 108.35546875 C170.83578125 108.96253662 170.98015625 109.56960449 171.12890625 110.19506836 C171.57692671 111.844227 172.11198738 113.4696702 172.67553711 115.08300781 C173.74047025 118.41933765 174.37564764 121.64321426 174.9453125 125.09765625 C175.15994141 126.39123047 175.37457031 127.68480469 175.59570312 129.01757812 C175.75800415 130.01930054 175.75800415 130.01930054 175.92358398 131.04125977 C176.25144827 133.06296839 176.58699971 135.08328325 176.92382812 137.10351562 C177.82948549 142.61133518 178.71734464 148.09793092 179.28125 153.65234375 C179.28942694 157.07125926 179.28942694 157.07125926 180.69140625 158.265625 C185.58770614 192.70467766 185.03060209 230.98104326 179.69140625 265.265625 C179.40209229 267.17722412 179.40209229 267.17722412 179.10693359 269.12744141 C173.93193107 303.10102865 173.93193107 303.10102865 168.69140625 314.265625 C168.44519531 315.07515625 168.19898438 315.8846875 167.9453125 316.71875 C166.2974961 320.06571664 164.36167207 321.1634513 161.19140625 323.078125 C160.21171875 323.68269531 159.23203125 324.28726562 158.22265625 324.91015625 C155.69140625 326.265625 155.69140625 326.265625 153.69140625 326.265625 C153.69140625 326.925625 153.69140625 327.585625 153.69140625 328.265625 C150.69140625 330.265625 150.69140625 330.265625 146.69140625 330.265625 C146.69140625 330.925625 146.69140625 331.585625 146.69140625 332.265625 C141.69327356 335.38945793 137.45972741 337.0512416 131.69140625 338.265625 C131.69140625 338.925625 131.69140625 339.585625 131.69140625 340.265625 C131.07394531 340.50796875 130.45648437 340.7503125 129.8203125 341 C124.67339376 343.03683238 119.60809839 345.16881927 114.6015625 347.53125 C112.69140625 348.265625 112.69140625 348.265625 109.69140625 348.265625 C109.69140625 348.925625 109.69140625 349.585625 109.69140625 350.265625 C106.78121185 352.51867873 104.11495025 353.4653186 100.56640625 354.140625 C96.89220916 354.86818878 93.81996109 356.02522268 90.44140625 357.640625 C85.38854562 360.05012376 80.3047768 361.72989216 74.9296875 363.2734375 C72.62444245 363.97974901 70.34784763 364.78260299 68.09765625 365.6484375 C8.4931176 388.30310862 -76.40691306 397.2302727 -137.30859375 376.265625 C-138.94918465 376.00152988 -140.59595579 375.77390408 -142.24609375 375.578125 C-148.66490704 374.57014553 -154.78306029 372.77355705 -160.99609375 370.890625 C-161.9698999 370.59841064 -162.94370605 370.30619629 -163.94702148 370.00512695 C-169.25795765 368.36387665 -174.31278652 366.4849186 -179.35864258 364.15380859 C-181.79543611 363.04387309 -184.27875656 362.14013662 -186.80859375 361.265625 C-195.70351257 358.06689901 -203.66901548 354.00929084 -211.78125 349.16796875 C-214.30098546 347.69955636 -216.67497821 346.83622221 -219.46875 346.01953125 C-222.76541732 344.84092998 -224.07333934 343.63962643 -225.76953125 340.578125 C-226.43475947 339.15301158 -227.07247837 337.71476779 -227.68359375 336.265625 C-228.33607932 334.82759798 -228.98968369 333.39007795 -229.64453125 331.953125 C-230.05517822 330.99986328 -230.05517822 330.99986328 -230.47412109 330.02734375 C-231.38561692 327.99287043 -231.38561692 327.99287043 -233.30859375 325.265625 C-233.774548 323.60150268 -234.2380086 321.93660253 -234.68334961 320.2668457 C-235.35587032 318.11430675 -236.22930093 316.1619667 -237.1875 314.12109375 C-239.31052803 309.41543288 -240.88527642 304.6411648 -242.37109375 299.703125 C-244.42908898 292.936837 -244.42908898 292.936837 -246.82421875 286.28515625 C-248.54930647 281.78129073 -249.78431193 277.17970367 -250.99609375 272.515625 C-251.22103516 271.67902344 -251.44597656 270.84242188 -251.67773438 269.98046875 C-251.88978516 269.17222656 -252.10183594 268.36398437 -252.3203125 267.53125 C-252.60588013 266.44505371 -252.60588013 266.44505371 -252.8972168 265.33691406 C-253.30859375 263.265625 -253.30859375 263.265625 -253.30859375 259.265625 C-253.96859375 259.265625 -254.62859375 259.265625 -255.30859375 259.265625 C-255.49035156 258.0796875 -255.67210937 256.89375 -255.859375 255.671875 C-256.11314972 254.03643792 -256.3670637 252.40102244 -256.62109375 250.765625 C-256.73904297 249.99347656 -256.85699219 249.22132813 -256.97851562 248.42578125 C-257.69564964 243.82876831 -258.49681614 239.25940414 -259.38972473 234.69296265 C-261.16811112 225.54826265 -262.38000415 216.39370728 -263.43359375 207.140625 C-263.68695553 204.95580351 -263.94191097 202.77117907 -264.19821167 200.58670044 C-264.426856 198.63219167 -264.65131459 196.67719454 -264.87548828 194.72216797 C-265.15198 192.51553338 -265.47458982 190.31386493 -265.85668945 188.12304688 C-266.27833885 185.45692881 -266.42374641 182.99913403 -266.40625 180.3046875 C-266.40302734 179.42167969 -266.39980469 178.53867187 -266.39648438 177.62890625 C-266.38810547 176.72527344 -266.37972656 175.82164062 -266.37109375 174.890625 C-266.36658203 173.96378906 -266.36207031 173.03695312 -266.35742188 172.08203125 C-266.34570949 169.80982791 -266.32930747 167.53776112 -266.30859375 165.265625 C-262.18451323 163.4708124 -257.98323372 162.36356147 -253.62109375 161.328125 C-228.50489614 155.33868828 -203.59131575 144.43833908 -183.30859375 128.265625 C-182.47457031 127.62109375 -181.64054687 126.9765625 -180.78125 126.3125 C-148.13191794 100.75647429 -126.40192232 68.34549332 -110.46484375 30.40234375 C-110.10132813 29.54431152 -109.7378125 28.6862793 -109.36328125 27.80224609 C-108.65622866 26.10171915 -107.97407426 24.39063923 -107.31640625 22.67041016 C-104.91100954 16.64128331 -104.91100954 16.64128331 -101.890625 14.7578125 C-101.03855469 14.59539062 -100.18648437 14.43296875 -99.30859375 14.265625 C-98.46683594 14.10320312 -97.62507812 13.94078125 -96.7578125 13.7734375 C-95.84644531 13.64710938 -94.93507813 13.52078125 -93.99609375 13.390625 C-88.83115275 12.587618 -83.80871727 11.48298561 -78.74609375 10.203125 C-78.05539795 10.02861816 -77.36470215 9.85411133 -76.65307617 9.67431641 C-73.83616916 8.95153215 -71.06848287 8.18558804 -68.30859375 7.265625 C-66.4153878 7.08892578 -64.51879647 6.94718701 -62.62109375 6.828125 C-57.60070456 6.44705931 -53.15565131 5.58008129 -48.30859375 4.265625 C-42.26148905 3.2466172 -36.27134693 2.96307172 -30.15625 2.74804688 C-26.43066483 2.57870209 -23.01883649 2.24462099 -19.41723633 1.25854492 C-12.99456327 -0.20609409 -6.55688085 -0.0204159 0 0 Z " fill="#000000" transform="translate(518.30859375,202.734375)"/>
<path d="M0 0 C3.97817355 3.12570779 5.21329909 6.69663759 6.93359375 11.27734375 C9.14387176 16.9204345 11.95719187 22.30013109 15.0625 27.5 C17.09507935 30.97164553 18.4790942 34.61808809 19.91796875 38.3671875 C21.40598399 41.98784552 23.20698823 45.41853514 25.046875 48.87109375 C26 51 26 51 26 54 C26.66 54 27.32 54 28 54 C28.51949219 55.17175781 29.03898438 56.34351563 29.57421875 57.55078125 C29.91001953 58.30721924 30.24582031 59.06365723 30.59179688 59.84301758 C31.32465212 61.49471784 32.05641622 63.14690266 32.78710938 64.79956055 C35.1616277 70.15857005 37.61004101 75.47314299 40.1875 80.73828125 C41.10322959 83.28735545 41.15226554 85.31156157 41 88 C40.34 88 39.68 88 39 88 C38.86271484 89.50046875 38.86271484 89.50046875 38.72265625 91.03125 C38.11407268 95.24794032 36.41591003 98.7648662 34.4375 102.5 C34.08107422 103.1899707 33.72464844 103.87994141 33.35742188 104.59082031 C32.6140495 106.02465367 31.86579911 107.45596811 31.11279297 108.88476562 C30.05222038 110.90073774 29.01044122 112.92535114 27.97265625 114.953125 C19.22485355 131.89509938 8.07203422 147.13288677 -5 161 C-5.64839844 161.71285156 -6.29679688 162.42570313 -6.96484375 163.16015625 C-22.53524519 179.62712591 -42.45196809 190.97124119 -63 200 C-64.05316406 200.47308594 -65.10632813 200.94617188 -66.19140625 201.43359375 C-73.09803169 204.32411105 -80.1613396 206.13018173 -87.4375 207.8125 C-88.38584717 208.03188232 -89.33419434 208.25126465 -90.3112793 208.47729492 C-100.62588518 210.74773647 -105.35428065 209.71668272 -114.4375 204.3125 C-116.4893294 203.12065648 -118.54142065 201.92926366 -120.59375 200.73828125 C-121.64691406 200.12162598 -122.70007813 199.5049707 -123.78515625 198.86962891 C-128.96963576 195.85453594 -134.20601851 192.93250974 -139.4375 190 C-144.54309487 187.13748736 -149.64096413 184.26217584 -154.66015625 181.25 C-155.30734619 180.86328125 -155.95453613 180.4765625 -156.62133789 180.078125 C-157.30377563 179.54445313 -157.30377563 179.54445313 -158 179 C-158 178.34 -158 177.68 -158 177 C-156.39015198 175.7056427 -156.39015198 175.7056427 -154.10375977 174.22192383 C-153.2518959 173.66406693 -152.40003204 173.10621002 -151.52235413 172.53144836 C-150.58814133 171.92939072 -149.65392853 171.32733307 -148.69140625 170.70703125 C-147.25848488 169.77065071 -147.25848488 169.77065071 -145.7966156 168.81535339 C-142.7228309 166.80778615 -139.64314096 164.80952736 -136.5625 162.8125 C-133.51467655 160.83231934 -130.46825624 158.8500757 -127.42478943 156.86320496 C-125.52861139 155.6257557 -123.62987595 154.39221312 -121.72816467 153.1632843 C-111.58280691 147.33312498 -111.58280691 147.33312498 -104 139 C-103.34 139 -102.68 139 -102 139 C-101.11682015 131.86914047 -102.43441208 125.75166947 -104.55078125 119.0078125 C-104.81680649 118.14179413 -105.08283173 117.27577576 -105.35691833 116.3835144 C-108.29761515 106.88966269 -111.42550657 97.45649619 -114.58666992 88.03417969 C-115.5684443 85.10727863 -116.54530817 82.17877236 -117.52148438 79.25 C-120.61834087 69.97964843 -123.75372718 60.7366012 -127.16772461 51.57763672 C-128 49 -128 49 -128 46 C-124.42047898 46.36713036 -121.47156381 47.15614521 -118.25 48.6875 C-112.87180476 51.19793526 -107.28408669 52.97682161 -101.64746094 54.80541992 C-96.71096119 56.40994338 -91.84694871 58.14329364 -87 60 C-85.73725147 60.47728356 -84.47423182 60.95385045 -83.2109375 61.4296875 C-82.58670898 61.66502197 -81.96248047 61.90035645 -81.31933594 62.14282227 C-74.34292093 64.76992782 -67.34306008 67.30778061 -60.3046875 69.765625 C-57.07720044 70.9711639 -54.00089683 72.36728017 -50.875 73.8125 C-44.95107711 76.29136078 -39.35204776 77.47743926 -33 76 C-26.14447178 71.38908259 -23.91996718 61.94534492 -21.1875 54.5625 C-20.66020109 53.14711871 -20.13285604 51.73175461 -19.60546875 50.31640625 C-19.20593994 49.24156982 -19.20593994 49.24156982 -18.79833984 48.14501953 C-17.29178379 44.09712916 -15.77160719 40.0543411 -14.25292969 36.01098633 C-12.98359514 32.62954198 -11.71941765 29.24632624 -10.46484375 25.859375 C-3.36202337 6.72404673 -3.36202337 6.72404673 0 0 Z " fill="#010000" transform="translate(342,128)"/>
<path d="M0 0 C2.0286795 0.26790815 4.05735925 0.53581436 6.08604431 0.80368042 C9.25470147 1.2235355 12.42267129 1.64847893 15.59069824 2.07305908 C24.11164453 3.21398769 32.63374213 4.34630217 41.15603638 5.47711182 C43.47336456 5.78465915 45.79064552 6.09256261 48.10787964 6.40081787 C62.08093516 8.25797051 76.05669181 10.03412557 90.0625 11.625 C99.94228814 12.75457964 109.79507151 13.99217919 119.625 15.5 C120.64625977 15.65041748 121.66751953 15.80083496 122.71972656 15.95581055 C127.52814167 16.72749566 131.32481736 17.44673802 135.3125 20.4375 C135.869375 20.829375 136.42625 21.22125 137 21.625 C140.08263587 25.88197335 140.98165423 32.30731761 140.3125 37.4375 C137.62216724 41.86353131 134.44570033 45.78307833 131.0625 49.6875 C127.74762648 53.55631791 124.47341054 57.44064618 121.3125 61.4375 C117.78366597 65.89003701 114.13020671 70.22435979 110.44921875 74.55078125 C107.53245487 77.98321609 104.65556574 81.44342815 101.8125 84.9375 C98.06462202 89.5420358 94.24266556 94.07769191 90.3984375 98.6015625 C86.75390593 102.89763044 83.1846266 107.25118341 79.62890625 111.62109375 C77.03461956 114.77536138 74.39604918 117.88919021 71.75 121 C68.3617408 124.99334769 64.99302914 129.00006973 61.6875 133.0625 C61.05585938 133.83851563 60.42421875 134.61453125 59.7734375 135.4140625 C58.13551582 137.47020038 58.13551582 137.47020038 57.3125 140.4375 C55.65770491 141.78553886 53.98928342 143.1169119 52.3125 144.4375 C50.84935964 146.08486789 49.43393927 147.77554211 48.0625 149.5 C47.29164063 150.4590625 46.52078125 151.418125 45.7265625 152.40625 C44.92992187 153.4065625 44.13328125 154.406875 43.3125 155.4375 C41.69195285 157.46190591 40.06711528 159.48288662 38.4375 161.5 C37.71820313 162.39847656 36.99890625 163.29695312 36.2578125 164.22265625 C33.78266056 167.04075093 32.145913 168.33179341 28.38671875 168.80859375 C18.10838055 169.01012979 18.10838055 169.01012979 14.75 166.5 C8.7839246 159.00416168 6.71307529 149.49659178 4.13708496 140.42831421 C3.05314658 136.61578579 1.94774489 132.80953015 0.83984375 129.00390625 C0.62220367 128.25587234 0.4045636 127.50783844 0.18032837 126.73713684 C-1.55271077 120.81755122 -3.43617258 114.95959091 -5.4375 109.125 C-8.00513663 101.62415548 -10.28117337 94.07894432 -12.42114258 86.44555664 C-15.05644819 77.05613773 -17.91337682 67.73769601 -20.77441406 58.41503906 C-22.35592694 53.25778478 -23.92795534 48.0976466 -25.5 42.9375 C-25.93493774 41.5136499 -25.93493774 41.5136499 -26.37866211 40.06103516 C-27.15292479 37.52123448 -27.92150681 34.979805 -28.6875 32.4375 C-28.89793945 31.74906006 -29.10837891 31.06062012 -29.32519531 30.35131836 C-30.44968425 26.58368546 -30.87972048 23.37801993 -30.6875 19.4375 C-31.3475 19.4375 -32.0075 19.4375 -32.6875 19.4375 C-33.03403056 14.56682052 -33.22918612 10.63372351 -31.1875 6.125 C-21.88962122 -3.87021969 -12.53906079 -1.70100618 0 0 Z " fill="#9A2D68" transform="translate(429.6875,339.5625)"/>
<path d="M0 0 C0.62261719 0.44214844 1.24523437 0.88429688 1.88671875 1.33984375 C2.75296875 1.89671875 3.61921875 2.45359375 4.51171875 3.02734375 C9.90699879 8.28064274 14.04498696 13.74210679 14.88671875 21.33984375 C15.54671875 21.33984375 16.20671875 21.33984375 16.88671875 21.33984375 C20.15084097 29.30690526 21.97580985 37.00943585 23.13671875 45.52734375 C23.30437744 46.74478271 23.47203613 47.96222168 23.64477539 49.21655273 C26.6625244 72.82004461 27.43652177 102.53121768 13.88671875 123.33984375 C13.22671875 123.33984375 12.56671875 123.33984375 11.88671875 123.33984375 C11.68046875 123.99984375 11.47421875 124.65984375 11.26171875 125.33984375 C6.76771698 135.14493853 -1.13178784 142.5165641 -11.03515625 146.61328125 C-17.85642325 148.99816032 -25.16027101 149.75873881 -32.0625 147.28125 C-38.49332691 143.97166125 -43.29436104 139.67020596 -48.11328125 134.33984375 C-48.63277344 133.97963135 -49.15226563 133.61941895 -49.6875 133.24829102 C-51.9936711 130.16141781 -51.58109365 126.68186485 -51.58203125 122.97265625 C-51.58964478 122.1420871 -51.5972583 121.31151794 -51.60510254 120.45578003 C-51.61591541 118.69223021 -51.61875182 116.9286163 -51.61425781 115.16503906 C-51.61329708 112.50862211 -51.65465514 109.85520965 -51.69921875 107.19921875 C-51.78392087 95.29643713 -51.07762168 84.19841427 -42.42578125 75.08984375 C-39.4529124 72.42678607 -37.82983546 71.39292184 -33.73828125 71.08984375 C-29.83108244 71.35930574 -28.73319269 71.53279578 -26.11328125 74.33984375 C-24.63266125 83.34331979 -26.1560937 92.27474547 -28.68945312 100.93432617 C-30.00341061 105.44024176 -31.30447443 109.95745738 -29.11328125 114.33984375 C-26.20899195 114.23191554 -26.20899195 114.23191554 -23.11328125 113.33984375 C-20.08953409 109.88413271 -19.44161347 105.92505983 -18.640625 101.5234375 C-18.08707468 99.23132912 -17.1690695 97.43880127 -16.11328125 95.33984375 C-14.51272644 86.05662588 -13.71178089 75.97927519 -18.11328125 67.33984375 C-22.02356087 62.61492254 -26.09024819 61.04696679 -32.11328125 60.46484375 C-33.77908542 60.39694412 -35.4461051 60.34597307 -37.11328125 60.33984375 C-34.31802964 52.63254805 -29.30876063 46.17153729 -22.09375 42.15234375 C-18.88051112 40.8340919 -16.51510648 40.76217532 -13.11328125 41.33984375 C-9.58003968 43.53830517 -7.65943986 45.51168611 -6.11328125 49.33984375 C-5.81030273 51.8894043 -5.81030273 51.8894043 -5.734375 54.7265625 C-5.70021484 55.74685547 -5.66605469 56.76714844 -5.63085938 57.81835938 C-5.60443359 58.87732422 -5.57800781 59.93628906 -5.55078125 61.02734375 C-5.49112735 63.13553813 -5.42754542 65.24362632 -5.359375 67.3515625 C-5.33544678 68.28444092 -5.31151855 69.21731934 -5.28686523 70.1784668 C-5.34995321 72.31924866 -5.34995321 72.31924866 -4.11328125 73.33984375 C-1.15511018 73.58989761 -1.15511018 73.58989761 1.88671875 73.33984375 C5.41291446 69.81364804 4.25605941 64.5510003 4.26171875 59.77734375 C4.29845703 58.18696289 4.29845703 58.18696289 4.3359375 56.56445312 C4.36496459 48.72229967 3.3968901 42.05887366 -2.1484375 36.18359375 C-3.15197266 35.5184375 -3.15197266 35.5184375 -4.17578125 34.83984375 C-4.84738281 34.37578125 -5.51898437 33.91171875 -6.2109375 33.43359375 C-9.79898012 31.37065344 -12.8632617 31.1511648 -16.92578125 31.08984375 C-17.94285156 31.0640625 -18.95992187 31.03828125 -20.0078125 31.01171875 C-28.88451187 31.94963416 -35.81241862 39.2938237 -41.20703125 45.90625 C-44.55285289 50.54928638 -46.9789159 55.05474861 -49.11328125 60.33984375 C-50.36376952 62.41326363 -51.71360755 64.36099473 -53.11328125 66.33984375 C-55.47558772 62.56410704 -55.73055631 58.5432045 -56.17578125 54.21484375 C-56.55307479 49.12328658 -56.55307479 49.12328658 -58.11328125 44.33984375 C-58.6268924 38.64087076 -57.32540138 34.83020765 -54.55078125 29.96484375 C-54.18871582 29.31 -53.82665039 28.65515625 -53.45361328 27.98046875 C-50.46654022 22.69795596 -47.05785157 17.95282575 -43.11328125 13.33984375 C-42.64535156 12.72882813 -42.17742188 12.1178125 -41.6953125 11.48828125 C-31.84654929 -1.03647645 -14.67541541 -9.51135541 0 0 Z " fill="#030102" transform="translate(783.11328125,291.66015625)"/>
<path d="M0 0 C7.13039469 4.21914714 14.01933507 8.79774049 20.546875 13.90625 C22.02663411 15.08855692 22.02663411 15.08855692 24 16 C24.6328125 18.94140625 24.6328125 18.94140625 25.125 22.5625 C25.29257813 23.76003906 25.46015625 24.95757812 25.6328125 26.19140625 C25.75398438 27.11824219 25.87515625 28.04507813 26 29 C23.01989345 27.67693545 21.16277052 26.2968524 19 23.875 C9.97192478 14.61444215 -0.15920278 8.98152043 -13.0625 8.625 C-20.284505 8.81157494 -25.74390325 9.68567449 -31.25 14.6875 C-36.52529357 20.65668353 -38.72185846 26.64247175 -38.5625 34.5625 C-38.55226807 35.33972412 -38.54203613 36.11694824 -38.53149414 36.91772461 C-38.14054375 47.7812724 -34.94852585 58.07949171 -27.78125 66.45703125 C-25.31236584 68.59564802 -23.23307152 69.0788554 -20 69 C-19.7525 67.7625 -19.505 66.525 -19.25 65.25 C-19.11078125 64.55390625 -18.9715625 63.8578125 -18.828125 63.140625 C-19.07630992 60.04959462 -20.81557232 59.13761851 -23 57 C-27.76408307 47.2712409 -30.1087395 37.05835427 -26.875 26.5 C-24.63499097 22.31864981 -23.36754224 20.87180382 -19 19 C-15.3062135 18.69472839 -11.69602961 18.76324365 -8 19 C-8 19.66 -8 20.32 -8 21 C-8.804375 21.61875 -9.60875 22.2375 -10.4375 22.875 C-13.25898574 25.21476866 -13.46014253 25.56721065 -14 29 C-14.58385148 36.68578264 -14.70642279 43.2947871 -10.875 50.1328125 C-10 52 -10 52 -10 56 C-9.34 56 -8.68 56 -8 56 C-6.94800656 57.485343 -5.9590742 59.01553177 -5 60.5625 C-0.88530037 66.62264339 4.501691 71.90361549 11.8046875 73.68359375 C12.52914062 73.78800781 13.25359375 73.89242187 14 74 C14 73.34 14 72.68 14 72 C14.66 71.67 15.32 71.34 16 71 C16.65772428 67.97065509 16.65772428 67.97065509 17 65 C16.319375 64.79375 15.63875 64.5875 14.9375 64.375 C6.24122688 60.30440407 0.06479179 52.53216063 -3.28515625 43.6796875 C-4.41748269 39.43501023 -4.33347016 35.35363822 -4 31 C-0.35390386 29.06422614 1.81380653 28.44710652 6 29 C14.25197438 31.97767982 19.60961704 38.34234158 25 45 C26.2684375 46.50626953 26.2684375 46.50626953 27.5625 48.04296875 C31.10720958 53.09383509 32.26784821 59.03215532 33.75 64.9375 C34.20439453 66.64969727 34.20439453 66.64969727 34.66796875 68.39648438 C37.68460449 80.00047652 37.68460449 80.00047652 38 86 C36.0625 88.5625 36.0625 88.5625 33 91 C31.68713832 92.20794036 30.37466065 93.41629817 29.0625 94.625 C21.43524149 101.22193466 13.5109182 103.39299851 3.625 103.375 C2.74811523 103.37411377 1.87123047 103.37322754 0.96777344 103.37231445 C-10.23442469 103.17234771 -20.68074268 100.29969055 -31 96 C-31 95.34 -31 94.68 -31 94 C-32.07507813 93.85884766 -32.07507813 93.85884766 -33.171875 93.71484375 C-45.20202436 90.67407395 -54.52089539 77.65121567 -61.00390625 67.8125 C-62 66 -62 66 -62 64 C-62.66 64 -63.32 64 -64 64 C-64.23074219 63.47792969 -64.46148437 62.95585937 -64.69921875 62.41796875 C-65.02535156 61.68191406 -65.35148438 60.94585937 -65.6875 60.1875 C-66.0484375 59.36765625 -66.409375 58.5478125 -66.78125 57.703125 C-67.60868371 55.86791947 -68.46397626 54.04507211 -69.34375 52.234375 C-69.7871875 51.31140625 -70.230625 50.3884375 -70.6875 49.4375 C-71.10386719 48.59058594 -71.52023438 47.74367188 -71.94921875 46.87109375 C-74.58061699 39.68121379 -74.24135554 31.75252755 -74.3125 24.1875 C-74.34150391 23.17107422 -74.37050781 22.15464844 -74.40039062 21.10742188 C-74.4793924 11.57251479 -72.43326418 2.58313425 -65.703125 -4.50390625 C-46.11657399 -21.70952331 -19.73281193 -11.23191258 0 0 Z " fill="#030102" transform="translate(202,407)"/>
<path d="M0 0 C13.54385538 0.43902286 26.90751869 2.29323968 40.32302856 4.10440063 C45.05392246 4.74274842 49.78685772 5.36309617 54.52153015 5.97277832 C57.91442156 6.41058375 61.30647171 6.85468773 64.69839478 7.29992676 C66.35042051 7.51567873 68.00274446 7.72915999 69.65536499 7.94030762 C71.97302284 8.23721671 74.28929763 8.54329856 76.60546875 8.8515625 C77.6409082 8.98109818 77.6409082 8.98109818 78.69726562 9.11325073 C82.15326555 9.58290085 84.99656005 10.18716008 88 12 C86.948125 13.23363281 86.948125 13.23363281 85.875 14.4921875 C81.51993259 19.6121676 77.17402555 24.73029275 73 30 C69.47116597 34.45253701 65.81770671 38.78685979 62.13671875 43.11328125 C59.21995487 46.54571609 56.34306574 50.00592815 53.5 53.5 C49.75816114 58.09711631 45.94764169 62.63024799 42.10131836 67.13989258 C39.84129359 69.79628725 37.61050139 72.46785913 35.44140625 75.19921875 C34.65636719 76.18535156 33.87132812 77.17148437 33.0625 78.1875 C32.37285156 79.06792969 31.68320312 79.94835937 30.97265625 80.85546875 C29.04152394 82.95485813 27.68892321 84.0849802 25 85 C23 84 23 84 22 81.0859375 C21.67 79.86132812 21.34 78.63671875 21 77.375 C20.67 76.16585937 20.34 74.95671875 20 73.7109375 C19.67 72.48632812 19.34 71.26171875 19 70 C18.649375 68.78957031 18.29875 67.57914062 17.9375 66.33203125 C16.98410625 62.94351096 16.2486894 59.56260831 15.5625 56.11328125 C14.96693292 53.87576882 14.06282047 52.05091138 13 50 C11.814055 46.21980032 10.87074039 42.43671013 10.0625 38.5625 C8.97118741 33.53223103 7.22201821 28.87355766 5.2109375 24.14453125 C2.80509427 18.2514304 1.92011234 12.27349323 1 6 C0.67043089 3.99937627 0.33814236 1.99919255 0 0 Z " fill="#020001" transform="translate(436,373)"/>
<path d="M0 0 C5.62783523 3.860179 8.88004006 7.51541665 11 14 C11.495 15.485 11.495 15.485 12 17 C12.70240062 26.23926969 11.7718218 32.76423404 5.875 40.125 C1.09201262 45.23613412 -3.35443754 48.56964983 -10.44140625 49.40625 C-19.74072023 49.64292395 -26.31455016 48.35926863 -33.2890625 41.984375 C-38.82174479 35.56747407 -42.00710373 28.09389561 -41.4453125 19.59375 C-39.99591606 11.15165146 -35.67825465 5.2548256 -29 0 C-19.5373831 -6.05266487 -9.63792003 -5.34566527 0 0 Z " fill="#8F2B69" transform="translate(111,265)"/>
<path d="M0 0 C5.94374024 3.52360972 9.84662291 9.53986873 12 16 C12.8512262 25.41930629 11.68865351 31.16634206 6.01171875 38.60546875 C0.45803767 45.25262072 -3.51166493 48.46909322 -12.109375 49.30078125 C-18.89686761 49.57447047 -24.52272453 49.27252327 -30 45 C-32.27639989 42.8459872 -34.35882669 40.67933975 -36 38 C-36 37.01 -36 36.02 -36 35 C-36.66 35 -37.32 35 -38 35 C-41.37647584 27.89868177 -40.54271233 19.73868494 -39.4375 12.125 C-36.08538918 4.83780258 -30.90052513 0.10021513 -23.6015625 -3.15234375 C-15.29168691 -5.85991583 -7.67586883 -3.69264983 0 0 Z " fill="#902C69" transform="translate(336,11)"/>
<path d="M0 0 C6.42736804 3.80959894 11.22167021 8.55498108 13.375 15.8125 C14.76676894 25.57867349 13.32452005 33.82314451 7.375 41.8125 C0.02184122 48.44324318 -7.36492682 50.34439906 -17.10546875 50.19140625 C-23.72976221 49.47824702 -27.76751539 46.62870717 -32.4375 42.0625 C-38.19407336 33.50987673 -39.9598585 26.21967117 -38.625 15.8125 C-36.461273 8.38403634 -32.33539527 3.57438826 -25.625 -0.1875 C-17.98195455 -3.93765303 -7.62385135 -3.64569132 0 0 Z " fill="#8F2C69" transform="translate(152.625,90.1875)"/>
<path d="M0 0 C11.32285353 -0.07609871 22.62044431 0.16047694 33.9375 0.5 C35.60350989 0.54837484 37.26952551 0.59655297 38.93554688 0.64453125 C42.95710057 0.76076275 46.97856835 0.87962278 51 1 C51 1.33 51 1.66 51 2 C34.83 2 18.66 2 2 2 C2.33 5.3 2.66 8.6 3 12 C0.36453856 8.04680784 0.40224983 4.62587309 0 0 Z " fill="#371336" transform="translate(432,618)"/>
<path d="M0 0 C0.66 0.33 1.32 0.66 2 1 C1.98839844 2.22074219 1.97679687 3.44148438 1.96484375 4.69921875 C1.90970934 13.15373664 2.00730969 21.4831638 2.77734375 29.91015625 C3.16354724 35.26957658 3.07909749 40.63015917 3 46 C2.67 46 2.34 46 2 46 C1.86722656 44.69804687 1.73445312 43.39609375 1.59765625 42.0546875 C1.41936886 40.32811487 1.24097798 38.60155293 1.0625 36.875 C0.93198242 35.59109375 0.93198242 35.59109375 0.79882812 34.28125 C0.44075904 30.83317728 0.08192292 27.43596741 -0.55859375 24.02734375 C-1.20690729 19.58094559 -1.14429807 15.17430236 -1.125 10.6875 C-1.12886719 9.76904297 -1.13273438 8.85058594 -1.13671875 7.90429688 C-1.13542969 7.03224609 -1.13414062 6.16019531 -1.1328125 5.26171875 C-1.13112061 4.07002075 -1.13112061 4.07002075 -1.12939453 2.85424805 C-1 1 -1 1 0 0 Z " fill="#2F0E22" transform="translate(253,367)"/>
<path d="M0 0 C2.57088381 9.11273428 -1.59742763 20.11048222 -4 29 C-4.66 29 -5.32 29 -6 29 C-5.33425862 22.51093459 -3.99578944 16.32918678 -2.4375 10 C-2.20353516 9.03449219 -1.96957031 8.06898438 -1.72851562 7.07421875 C-1.15626866 4.71515983 -0.58002171 2.35715708 0 0 Z " fill="#38122F" transform="translate(723,498)"/>
<path d="M0 0 C0.95827504 3.04498611 0.99431517 5.02273931 0.22265625 8.109375 C-0.05288086 9.24052734 -0.05288086 9.24052734 -0.33398438 10.39453125 C-0.53314453 11.17183594 -0.73230469 11.94914062 -0.9375 12.75 C-1.13279297 13.54277344 -1.32808594 14.33554687 -1.52929688 15.15234375 C-2.01124079 17.10362885 -2.50452088 19.05210783 -3 21 C-3.66 21 -4.32 21 -5 21 C-5 21.99 -5 22.98 -5 24 C-5.66 23.67 -6.32 23.34 -7 23 C-6.80664062 22.35933594 -6.61328125 21.71867188 -6.4140625 21.05859375 C-5.23095675 17.12857416 -4.05635786 13.19891011 -2.9375 9.25 C-2.03895387 6.13504008 -1.04750484 3.06769275 0 0 Z " fill="#551C48" transform="translate(692,498)"/>
<path d="M0 0 C0.66 0.33 1.32 0.66 2 1 C-2.95 5.95 -7.9 10.9 -13 16 C-13 10.79628205 -8.49504984 7.5790344 -5 4 C-3.37707762 2.6137538 -1.7331451 1.24569804 0 0 Z " fill="#260B19" transform="translate(751,294)"/>
<path d="M0 0 C0.66 0.33 1.32 0.66 2 1 C0.21427748 2.83947337 -1.57802449 4.67157741 -3.375 6.5 C-3.88289063 7.02464844 -4.39078125 7.54929687 -4.9140625 8.08984375 C-6.23832604 9.43153181 -7.61605865 10.71995815 -9 12 C-9.66 12 -10.32 12 -11 12 C-9.49650623 8.33213607 -7.36271208 6.31089607 -4.375 3.75 C-3.14910156 2.69039063 -3.14910156 2.69039063 -1.8984375 1.609375 C-1.27195312 1.07828125 -0.64546875 0.5471875 0 0 Z " fill="#772455" transform="translate(127,380)"/>
<path d="M0 0 C0.99 0.33 1.98 0.66 3 1 C1.56877218 2.48523642 0.12979111 3.96300462 -1.3125 5.4375 C-2.11300781 6.26121094 -2.91351562 7.08492188 -3.73828125 7.93359375 C-6 10 -6 10 -9 11 C-7.59155282 7.78475695 -5.89655214 5.67816132 -3.375 3.25 C-2.74335937 2.63640625 -2.11171875 2.0228125 -1.4609375 1.390625 C-0.73777344 0.70226562 -0.73777344 0.70226562 0 0 Z " fill="#812557" transform="translate(751,327)"/>
<path d="M0 0 C1.16306443 3.54950034 0.92365049 6.55823948 0.5625 10.25 C0.40974609 11.86648438 0.40974609 11.86648438 0.25390625 13.515625 C0.17011719 14.33546875 0.08632813 15.1553125 0 16 C-2.15942819 12.76085771 -2.27232978 11.75140267 -2.25 8 C-2.25515625 7.13375 -2.2603125 6.2675 -2.265625 5.375 C-2 3 -2 3 0 0 Z " fill="#39153E" transform="translate(273,675)"/>
<path d="M0 0 C0.66 0.33 1.32 0.66 2 1 C0.73548068 2.31858428 -0.53685475 3.62967631 -1.8125 4.9375 C-2.52019531 5.66839844 -3.22789062 6.39929688 -3.95703125 7.15234375 C-6 9 -6 9 -9 10 C-7.61811547 6.78956118 -6.07578097 4.95063635 -3.375 2.75 C-2.74335938 2.22921875 -2.11171875 1.7084375 -1.4609375 1.171875 C-0.73777344 0.59179688 -0.73777344 0.59179688 0 0 Z " fill="#902751" transform="translate(308,10)"/>
<path d="M0 0 C0.66 0.33 1.32 0.66 2 1 C0.71451591 2.33929505 -0.57858155 3.67128643 -1.875 5 C-2.59429687 5.7425 -3.31359375 6.485 -4.0546875 7.25 C-6 9 -6 9 -8 9 C-6.4169423 4.7257442 -3.49431596 2.73468206 0 0 Z " fill="#1E0916" transform="translate(142,398)"/>
<path d="M0 0 C-1.49097658 3.7952131 -3.75700849 5.61042731 -7 8 C-7 5 -7 5 -4.625 2.3125 C-2 0 -2 0 0 0 Z " fill="#521E57" transform="translate(282,667)"/>
<path d="M0 0 C1.73684533 3.47369066 2.30084112 5.07619937 2.625 8.75 C2.69976562 9.54921875 2.77453125 10.3484375 2.8515625 11.171875 C2.90054688 11.77515625 2.94953125 12.3784375 3 13 C2.01 12.67 1.02 12.34 0 12 C0 8.04 0 4.08 0 0 Z " fill="#401330" transform="translate(225,423)"/>
<path d="M0 0 C0.66 0 1.32 0 2 0 C0.50902342 3.7952131 -1.75700849 5.61042731 -5 8 C-5 5 -5 5 -3.625 3.3125 C-2 2 -2 2 0 2 C0 1.34 0 0.68 0 0 Z " fill="#66204E" transform="translate(194,426)"/>
<path d="M0 0 C0.66 0 1.32 0 2 0 C0.95125002 2.62187494 0.35068687 3.79371361 -2.125 5.25 C-2.74375 5.4975 -3.3625 5.745 -4 6 C-4 6.66 -4 7.32 -4 8 C-4.66 7.67 -5.32 7.34 -6 7 C-5.04882866 5.8274869 -4.08882991 4.66212985 -3.125 3.5 C-2.59132813 2.8503125 -2.05765625 2.200625 -1.5078125 1.53125 C-0.76144531 0.77328125 -0.76144531 0.77328125 0 0 Z " fill="#76214B" transform="translate(730,281)"/>
<path d="M0 0 C3 3.625 3 3.625 3 7 C3.99 7.33 4.98 7.66 6 8 C5.01 8.66 4.02 9.32 3 10 C0.96564469 6.27034861 0 4.33094958 0 0 Z " fill="#381024" transform="translate(714,286)"/>
<path d="M0 0 C0.33 0 0.66 0 1 0 C0.38461538 7.50769231 0.38461538 7.50769231 -1.5625 10 C-2.036875 10.33 -2.51125 10.66 -3 11 C-2.32829194 7.1936543 -1.27253436 3.64793184 0 0 Z " fill="#852244" transform="translate(326,80)"/>
<path d="M0 0 C0.66 0.33 1.32 0.66 2 1 C1.0479279 2.00596297 0.08812654 3.00461563 -0.875 4 C-1.40867187 4.556875 -1.94234375 5.11375 -2.4921875 5.6875 C-4 7 -4 7 -6 7 C-4.60667426 3.63279613 -3.0210714 2.0140476 0 0 Z " fill="#95274D" transform="translate(405,340)"/>
<path d="M0 0 C0.99 0.66 1.98 1.32 3 2 C2.67 2.66 2.34 3.32 2 4 C1.01 4 0.02 4 -1 4 C-1.33 5.98 -1.66 7.96 -2 10 C-2.6875 8.375 -2.6875 8.375 -3 6 C-1.5625 2.75 -1.5625 2.75 0 0 Z " fill="#330D1B" transform="translate(342,128)"/>
<path d="M0 0 C2.97 0.495 2.97 0.495 6 1 C4.68 1.33 3.36 1.66 2 2 C2.33 3.98 2.66 5.96 3 8 C0.4345406 5.4345406 0.45953913 3.52313332 0 0 Z " fill="#310D1B" transform="translate(214,174)"/>
</svg>
